<svg width="30" height="17" viewBox="0 0 30 17" fill="none" xmlns="http://www.w3.org/2000/svg">
<path d="M14.0966 0.387077L0.844639 14.2954C0.623412 14.5274 0.5 14.8357 0.5 15.1564C0.5 15.477 0.623412 15.7853 0.844639 16.0174L0.859613 16.0323C0.966859 16.1452 1.09595 16.2351 1.23903 16.2966C1.38212 16.358 1.5362 16.3897 1.69191 16.3897C1.84763 16.3897 2.00171 16.358 2.14479 16.2966C2.28788 16.2351 2.41697 16.1452 2.52421 16.0323L15.0025 2.93514L27.4758 16.0323C27.583 16.1452 27.7121 16.2351 27.8552 16.2966C27.9983 16.358 28.1524 16.3897 28.3081 16.3897C28.4638 16.3897 28.6179 16.358 28.761 16.2966C28.904 16.2351 29.0331 16.1452 29.1404 16.0323L29.1554 16.0174C29.3766 15.7853 29.5 15.477 29.5 15.1564C29.5 14.8357 29.3766 14.5274 29.1554 14.2954L15.9034 0.387077C15.7869 0.264759 15.6467 0.167381 15.4914 0.100845C15.3361 0.0343087 15.1689 0 15 0C14.8311 0 14.6639 0.0343087 14.5086 0.100845C14.3533 0.167381 14.2131 0.264759 14.0966 0.387077Z" fill="white"/>
</svg>
