<svg width="20" height="20" viewBox="0 0 20 20" fill="none" xmlns="http://www.w3.org/2000/svg">
<path d="M14.9846 8.99167V12.325C14.9846 12.5417 14.9763 12.75 14.9513 12.95C14.7596 15.2 13.4346 16.3167 10.993 16.3167H10.6596C10.4513 16.3167 10.2513 16.4167 10.1263 16.5833L9.12631 17.9167C8.68465 18.5083 7.96797 18.5083 7.5263 17.9167L6.52629 16.5833C6.41796 16.4417 6.1763 16.3167 5.99297 16.3167H5.65964C3.00131 16.3167 1.66797 15.6583 1.66797 12.325V8.99167C1.66797 6.55001 2.79298 5.22501 5.03464 5.03334C5.23464 5.00834 5.44298 5 5.65964 5H10.993C13.6513 5 14.9846 6.33334 14.9846 8.99167Z" stroke="#073126" stroke-width="1.25" stroke-miterlimit="10" stroke-linecap="round" stroke-linejoin="round"/>
<path d="M18.3165 5.65964V8.99298C18.3165 11.443 17.1915 12.7596 14.9499 12.9513C14.9749 12.7513 14.9832 12.543 14.9832 12.3263V8.99298C14.9832 6.33464 13.6499 5.0013 10.9915 5.0013H5.6582C5.44154 5.0013 5.2332 5.00964 5.0332 5.03464C5.22487 2.79298 6.54987 1.66797 8.99154 1.66797H14.3249C16.9832 1.66797 18.3165 3.00131 18.3165 5.65964Z" stroke="#073126" stroke-width="1.25" stroke-miterlimit="10" stroke-linecap="round" stroke-linejoin="round"/>
<path d="M11.2469 11.0417H11.2544" stroke="#073126" stroke-width="1.25" stroke-linecap="round" stroke-linejoin="round"/>
<path d="M8.32893 11.0417H8.33643" stroke="#073126" stroke-width="1.25" stroke-linecap="round" stroke-linejoin="round"/>
<path d="M5.41292 11.0417H5.42042" stroke="#073126" stroke-width="1.25" stroke-linecap="round" stroke-linejoin="round"/>
</svg>
