<svg width="15" height="14" viewBox="0 0 15 14" fill="none" xmlns="http://www.w3.org/2000/svg">
<path d="M2.00506 10.5083L1.21094 13.7139L4.38741 12.9125L13.5881 3.62741C13.8858 3.32683 14.0531 2.91923 14.0531 2.49422C14.0531 2.06921 13.8858 1.6616 13.5881 1.36103L13.4515 1.22319C13.1536 0.922707 12.7497 0.753906 12.3286 0.753906C11.9074 0.753906 11.5035 0.922707 11.2057 1.22319L2.00506 10.5083ZM9.94623 2.49422L12.3286 4.89844L9.94623 2.49422ZM8.358 13.7139H14.7109H8.358Z" fill="black"/>
<path d="M9.94623 2.49422L12.3286 4.89844M8.358 13.7139H14.7109M2.00506 10.5083L1.21094 13.7139L4.38741 12.9125L13.5881 3.62741C13.8858 3.32683 14.0531 2.91923 14.0531 2.49422C14.0531 2.06921 13.8858 1.6616 13.5881 1.36103L13.4515 1.22319C13.1536 0.922707 12.7497 0.753906 12.3286 0.753906C11.9074 0.753906 11.5035 0.922707 11.2057 1.22319L2.00506 10.5083Z" stroke="white" stroke-width="0.54" stroke-linecap="round" stroke-linejoin="round"/>
</svg>
