<svg width="18" height="25" viewBox="0 0 18 25" fill="none" xmlns="http://www.w3.org/2000/svg">
<path d="M17.3249 9.0638C17.3249 7.96945 17.1093 6.88582 16.6905 5.87477C16.2717 4.86373 15.6579 3.94507 14.8841 3.17125C14.1103 2.39742 13.1916 1.7836 12.1806 1.36481C11.1695 0.946017 10.0859 0.730469 8.99154 0.730469C7.89719 0.730469 6.81355 0.946017 5.80251 1.36481C4.79146 1.7836 3.8728 2.39742 3.09898 3.17125C2.32516 3.94507 1.71133 4.86373 1.29254 5.87477C0.873751 6.88582 0.658203 7.96945 0.658203 9.0638C0.658203 10.715 1.14511 12.2507 1.97368 13.5459H1.96416L8.99154 24.54L16.0189 13.5459H16.0106C16.8688 12.2085 17.3249 10.6529 17.3249 9.0638ZM8.99154 12.6352C8.04434 12.6352 7.13593 12.259 6.46616 11.5892C5.79638 10.9194 5.42011 10.011 5.42011 9.0638C5.42011 8.1166 5.79638 7.20819 6.46616 6.53842C7.13593 5.86865 8.04434 5.49237 8.99154 5.49237C9.93874 5.49237 10.8471 5.86865 11.5169 6.53842C12.1867 7.20819 12.563 8.1166 12.563 9.0638C12.563 10.011 12.1867 10.9194 11.5169 11.5892C10.8471 12.259 9.93874 12.6352 8.99154 12.6352Z" fill="white"/>
</svg>
