<svg width="24" height="25" viewBox="0 0 24 25" fill="none" xmlns="http://www.w3.org/2000/svg">
<path d="M5.616 20.0547C5.15533 20.0547 4.771 19.9007 4.463 19.5927C4.155 19.2847 4.00067 18.9 4 18.4387V5.67069C4 5.21002 4.15433 4.82569 4.463 4.51769C4.77167 4.20969 5.156 4.05535 5.616 4.05469H12.019V5.05469H5.616C5.462 5.05469 5.32067 5.11869 5.192 5.24669C5.06333 5.37469 4.99933 5.51602 5 5.67069V18.4397C5 18.593 5.064 18.734 5.192 18.8627C5.32 18.9914 5.461 19.0554 5.615 19.0547H12.019V20.0547H5.616ZM16.462 15.5937L15.76 14.8737L18.079 12.5547H9.192V11.5547H18.079L15.759 9.23469L16.461 8.51669L20 12.0547L16.462 15.5937Z" fill="white"/>
</svg>
