<svg width="176" height="25" viewBox="0 0 176 25" fill="none" xmlns="http://www.w3.org/2000/svg">
<path d="M27.9534 15.3522C27.3662 16.5864 25.5164 20.0181 21.5232 22.2156C18.0291 24.1422 14.7405 24.1121 13.3899 24.0217C12.509 23.9615 8.66262 23.6304 4.96302 20.6804C2.46725 18.6936 1.14596 16.3757 0.5 15.0813L12.5678 15.2017C12.509 14.6599 12.3035 14.1481 11.9805 13.7267C11.5988 13.1849 11.0997 12.7935 10.6005 12.4022C10.2775 12.1313 9.92519 11.8604 9.63157 11.5593C8.86816 10.7767 8.16347 9.45217 8.63326 8.21797C8.72135 7.97715 8.86816 7.73633 9.07369 7.52561L9.2205 7.34499L9.24986 7.58581C9.33795 8.36848 9.71965 9.09094 10.3656 9.75319C10.6299 10.0241 10.9235 10.295 11.2171 10.5359C11.4226 10.7165 11.6575 10.9272 11.8631 11.1078C12.2448 11.469 12.8027 12.041 13.0963 12.7634C13.5073 13.6665 13.4486 14.5997 12.9788 15.2619L15.5627 15.292C15.592 13.6364 15.0635 11.9507 13.7129 10.6262C13.3312 10.2649 12.9201 9.9037 12.5384 9.54247C11.6869 8.78991 10.806 7.97715 10.1014 7.07407C8.92688 5.56895 8.72134 3.6424 9.57284 2.13727C9.63157 2.01686 9.69029 1.92656 9.77838 1.83625C10.3363 1.02348 11.1877 0.451537 12.1273 0.210717C12.509 0.0301024 12.9201 0 13.3312 0L13.9184 0.0301024L13.3605 0.210717C13.1844 0.270922 12.7733 0.451537 12.3329 0.782663C11.9512 1.08369 11.5401 1.50512 11.2465 2.10717C10.9822 2.70922 10.8941 3.34137 10.9822 3.94342C11.0997 4.63578 11.4226 5.29803 11.9805 5.93018C12.3916 6.41182 12.9495 6.80315 13.4486 7.16438C13.7422 7.3751 14.0359 7.58581 14.3295 7.82663C15.2691 8.6093 15.9737 9.42206 16.4435 10.2348C16.7078 10.7165 16.9427 11.2282 17.0895 11.74C17.0895 11.7701 17.1189 11.8002 17.1189 11.8002C17.4125 12.9139 17.4712 14.0879 17.3244 15.2318C17.3244 15.2619 17.3244 15.292 17.3244 15.3221C17.0895 17.0982 16.4142 18.7839 15.504 20.1686C15.4159 20.3191 15.2984 20.4697 15.2103 20.5901L14.8286 21.1319L15.3865 20.8008C16.1499 20.3492 16.8546 19.8074 17.4418 19.1753C18.4695 18.0615 19.2036 16.7069 19.5853 15.2619L27.9534 15.3522Z" fill="#FF7834"/>
<path d="M17.3579 15.2403C17.5047 14.0964 17.446 12.9525 17.1523 11.8086C17.4753 12.9525 17.5634 14.1265 17.3579 15.2403Z" fill="#FF7834"/>
<path d="M18.0934 10.0629L17.9172 10.2134V9.97256C17.8879 9.37051 17.6823 8.76846 17.33 8.25672C16.9483 7.71487 16.4491 7.32354 15.95 6.93221C15.627 6.66129 15.2747 6.39037 14.981 6.08934C14.2763 5.36688 13.601 4.16279 13.8946 2.98879C13.924 2.89848 13.9534 2.83828 13.9827 2.74797C14.0708 2.50715 14.2176 2.26633 14.4232 2.05561L14.57 1.875L14.5993 2.11582C14.6874 2.89848 15.0691 3.62094 15.7151 4.2832C15.9793 4.55412 16.273 4.82504 16.5666 5.06586C16.7721 5.24647 17.007 5.45719 17.2125 5.6378C17.5942 5.99903 18.1521 6.57098 18.4751 7.29344C18.5338 7.41385 18.5926 7.56436 18.6219 7.68477C18.8568 8.58784 18.6513 9.49092 18.0934 10.0629Z" fill="#FF7834"/>
<path d="M56.0191 9.68031C57.0294 10.6907 57.5979 11.871 57.7314 13.1832H46.9953H46.8163V13.3623V14.302V14.481H46.9953H58.7671H58.9461V14.302V14.0053C58.9461 11.9315 58.236 10.2051 56.8681 8.78647L56.8681 8.78645L56.8658 8.78414C55.4962 7.41453 53.7687 6.70379 51.793 6.70379C49.7682 6.70379 48.0393 7.41443 46.6686 8.83593C45.3025 10.2526 44.5905 11.9288 44.5905 13.9063C44.5905 15.8838 45.3026 17.5626 46.7226 18.9319C48.1393 20.298 49.8155 21.0099 51.793 21.0099C53.5704 21.0099 55.2428 20.3493 56.6569 19.1376L56.9527 18.8911L57.1145 18.7562L56.9554 18.6183L56.2134 17.9753L56.1043 17.8807L55.9888 17.9673L55.7909 18.1157L55.7906 18.1153L55.7801 18.1245C54.5717 19.1879 53.2772 19.7121 51.8425 19.7121C50.2066 19.7121 48.7688 19.1363 47.6165 17.984C46.4625 16.83 45.8883 15.4409 45.8883 13.8569C45.8883 12.2203 46.4645 10.7843 47.6138 9.68298L47.6138 9.68301L47.6165 9.68031C48.7694 8.52743 50.158 7.95214 51.8425 7.95214C53.4768 7.95214 54.8656 8.52688 56.0191 9.68031Z" fill="#FF7834" stroke="#FF7834" stroke-width="0.358037"/>
<path d="M78.9782 7.17969V7.00067H78.7991H77.8594H77.6804V7.17969V20.5837V20.7627H77.8594H78.7991H78.9782V20.5837V7.17969Z" fill="#FF7834" stroke="#FF7834" stroke-width="0.358037"/>
<path d="M79.2669 4.38268C79.0284 4.14426 78.6825 4.03424 78.3508 4.03424C78.1605 4.03424 77.9884 4.06152 77.8265 4.12775C77.6645 4.19404 77.5218 4.29559 77.3852 4.43212C77.1607 4.65668 76.9874 4.99637 76.9874 5.34821C76.9874 5.72368 77.0947 6.07811 77.3921 6.32058C77.6198 6.54486 77.9574 6.71163 78.3508 6.71163C78.6793 6.71163 79.0217 6.60374 79.2599 6.37009C79.5548 6.12976 79.6647 5.77807 79.6647 5.44711C79.6647 5.01737 79.5553 4.67106 79.2669 4.38268ZM78.6686 5.34821C78.6686 5.40176 78.6598 5.43849 78.6467 5.46806C78.6332 5.49839 78.611 5.53038 78.572 5.5694C78.533 5.60841 78.501 5.63065 78.4706 5.64413C78.4411 5.65727 78.4043 5.66599 78.3508 5.66599C78.2972 5.66599 78.2605 5.65727 78.2309 5.64413C78.2006 5.63065 78.1686 5.60841 78.1296 5.5694C78.0713 5.51114 78.033 5.41204 78.033 5.29877C78.033 5.24521 78.0417 5.20848 78.0549 5.17892C78.0683 5.14859 78.0906 5.11659 78.1296 5.07758C78.1589 5.04823 78.1992 5.02311 78.2433 5.00544C78.2883 4.98746 78.3278 4.98099 78.3508 4.98099C78.434 4.98099 78.4924 5.00056 78.5989 5.06754C78.6047 5.08402 78.6101 5.09931 78.6152 5.11364C78.6496 5.21037 78.6686 5.26371 78.6686 5.34821Z" fill="#FF7834" stroke="#FF7834" stroke-width="0.353386"/>
<path d="M99.5524 2.875V2.69598H99.3734H98.4336H98.2546V2.875V20.6811V20.8601H98.4336H99.3734H99.5524V20.6811V2.875Z" fill="#FF7834" stroke="#FF7834" stroke-width="0.358037"/>
<path d="M115.501 14.481H115.68V14.302V14.0053C115.68 11.9315 114.97 10.2051 113.602 8.78647L113.602 8.78645L113.6 8.78414C112.231 7.41453 110.503 6.70379 108.527 6.70379C106.503 6.70379 104.774 7.41443 103.403 8.83593C102.037 10.2526 101.325 11.9288 101.325 13.9063C101.325 15.8838 102.037 17.5626 103.457 18.9319C104.874 20.298 106.55 21.0099 108.527 21.0099C110.305 21.0099 111.977 20.3493 113.391 19.1376L113.687 18.8911L113.849 18.7562L113.69 18.6183L112.948 17.9753L112.839 17.8807L112.723 17.9673L112.525 18.1157L112.525 18.1153L112.514 18.1245C111.306 19.1879 110.012 19.7121 108.577 19.7121C106.941 19.7121 105.503 19.1363 104.351 17.984C103.197 16.83 102.623 15.4409 102.623 13.8569C102.623 12.2203 103.199 10.7843 104.348 9.68298L104.348 9.68301L104.351 9.68031C105.504 8.52743 106.892 7.95214 108.577 7.95214C110.211 7.95214 111.6 8.52688 112.753 9.68031C113.764 10.6907 114.332 11.871 114.466 13.1832H103.829H103.65V13.3623V14.302H103.73V14.481H103.829H104.008H115.501Z" fill="#FF7834" stroke="#FF7834" stroke-width="0.358037"/>
<path d="M50.4877 3.125V2.94598H50.3087H32.4531H32.2741V3.125V4.06477V4.24378H32.4531H39.9406V21.1289V21.308H40.1196H41.0594H41.2384V21.1289V4.24378H50.3087H50.4877V4.06477V3.125Z" fill="#FF7834" stroke="#FF7834" stroke-width="0.358037"/>
<path d="M73.3775 9.94932C72.0457 8.06853 69.8632 6.90157 67.4727 6.90157C63.5159 6.90157 60.2702 10.1473 60.2702 14.1041C60.2702 18.0593 63.5143 21.3561 67.4727 21.3561C71.4296 21.3561 74.6753 18.1104 74.6753 14.1536V3.07422V2.8952H74.4963H73.5565H73.3775V3.07422V9.94932ZM72.6539 11.5121C73.0403 12.3342 73.2785 13.1975 73.2785 14.1041V14.1536C73.2785 17.3686 70.6878 19.9594 67.4727 19.9594C64.2577 19.9594 61.6669 17.3686 61.6669 14.1536C61.6669 10.9385 64.2577 8.34776 67.4727 8.34776C69.6799 8.34776 71.6455 9.54571 72.6539 11.5121Z" fill="#FF7834" stroke="#FF7834" stroke-width="0.358037"/>
<path d="M89.2839 6.90157C86.8571 6.90157 84.6871 8.0623 83.3297 10.0246V3.07422V2.8952H83.1507H82.2109H82.0319V3.07422V14.1041C82.0319 18.061 85.2776 21.3066 89.2345 21.3066C93.1913 21.3066 96.437 18.061 96.437 14.1041C96.437 10.1497 93.2927 6.90157 89.2839 6.90157ZM84.1003 11.4675L84.1003 11.4675L84.1014 11.4653C85.1094 9.49733 87.0758 8.2983 89.2839 8.2983C92.499 8.2983 95.0897 10.8891 95.0897 14.1041C95.0897 17.3192 92.499 19.9099 89.2839 19.9099C86.0689 19.9099 83.4781 17.3192 83.4781 14.1041V14.0546C83.4781 13.1412 83.6701 12.2801 84.1003 11.4675Z" fill="#FF7834" stroke="#FF7834" stroke-width="0.358037"/>
</svg>
