<svg width="20" height="20" viewBox="0 0 20 20" fill="none" xmlns="http://www.w3.org/2000/svg">
<path d="M10.0155 2.42578C7.25719 2.42578 5.01552 4.66745 5.01552 7.42578V9.83411C5.01552 10.3424 4.79885 11.1174 4.54052 11.5508L3.58219 13.1424C2.99052 14.1258 3.39885 15.2174 4.48219 15.5841C8.07385 16.7841 11.9489 16.7841 15.5405 15.5841C16.5489 15.2508 16.9905 14.0591 16.4405 13.1424L15.4822 11.5508C15.2322 11.1174 15.0155 10.3424 15.0155 9.83411V7.42578C15.0155 4.67578 12.7655 2.42578 10.0155 2.42578Z" stroke="#073126" stroke-width="1.25" stroke-miterlimit="10" stroke-linecap="round"/>
<path d="M11.5579 2.66719C11.2996 2.59219 11.0329 2.53385 10.7579 2.50052C9.95794 2.40052 9.19128 2.45885 8.47461 2.66719C8.71628 2.05052 9.31628 1.61719 10.0163 1.61719C10.7163 1.61719 11.3163 2.05052 11.5579 2.66719Z" stroke="#073126" stroke-width="1.25" stroke-miterlimit="10" stroke-linecap="round" stroke-linejoin="round"/>
<path d="M12.5156 15.8828C12.5156 17.2578 11.3906 18.3828 10.0156 18.3828C9.33229 18.3828 8.69896 18.0995 8.24896 17.6495C7.79896 17.1995 7.51562 16.5661 7.51562 15.8828" stroke="#073126" stroke-width="1.25" stroke-miterlimit="10"/>
</svg>
