<svg width="15" height="15" viewBox="0 0 15 15" fill="none" xmlns="http://www.w3.org/2000/svg">
<path d="M1.81365 10.7739L1.01953 13.9795L4.196 13.1781L13.3966 3.89303C13.6944 3.59246 13.8617 3.18485 13.8617 2.75984C13.8617 2.33483 13.6944 1.92723 13.3966 1.62665L13.2601 1.48881C12.9622 1.18833 12.5583 1.01953 12.1372 1.01953C11.716 1.01953 11.3121 1.18833 11.0143 1.48881L1.81365 10.7739ZM9.75483 2.75984L12.1372 5.16406L9.75483 2.75984ZM8.16659 13.9795H14.5195H8.16659Z" fill="white"/>
<path d="M9.75483 2.75984L12.1372 5.16406M8.16659 13.9795H14.5195M1.81365 10.7739L1.01953 13.9795L4.196 13.1781L13.3966 3.89303C13.6944 3.59246 13.8617 3.18485 13.8617 2.75984C13.8617 2.33483 13.6944 1.92723 13.3966 1.62665L13.2601 1.48881C12.9622 1.18833 12.5583 1.01953 12.1372 1.01953C11.716 1.01953 11.3121 1.18833 11.0143 1.48881L1.81365 10.7739Z" stroke="white" stroke-width="0.54" stroke-linecap="round" stroke-linejoin="round"/>
</svg>
