<svg width="20" height="20" viewBox="0 0 20 20" fill="none" xmlns="http://www.w3.org/2000/svg">
<path d="M7.49935 18.3346H12.4993C16.666 18.3346 18.3327 16.668 18.3327 12.5013V7.5013C18.3327 3.33464 16.666 1.66797 12.4993 1.66797H7.49935C3.33268 1.66797 1.66602 3.33464 1.66602 7.5013V12.5013C1.66602 16.668 3.33268 18.3346 7.49935 18.3346Z" stroke="#073126" stroke-width="1.25" stroke-linecap="round" stroke-linejoin="round"/>
<path d="M13.5657 11.3422C12.624 12.2839 11.274 12.5755 10.0824 12.2005L7.92402 14.3505C7.77402 14.5089 7.46569 14.6089 7.24069 14.5755L6.24069 14.4422C5.90736 14.4005 5.60736 14.0839 5.55736 13.7589L5.42403 12.7589C5.39069 12.5422 5.49902 12.2339 5.64902 12.0755L7.79902 9.92552C7.43236 8.73385 7.71569 7.38385 8.65736 6.44219C10.0074 5.09219 12.2074 5.09219 13.5657 6.44219C14.9157 7.78385 14.9157 9.98385 13.5657 11.3422Z" stroke="#073126" stroke-width="1.25" stroke-miterlimit="10" stroke-linecap="round" stroke-linejoin="round"/>
<path d="M8.70833 13.5682L8 12.8516" stroke="#073126" stroke-width="1.25" stroke-miterlimit="10" stroke-linecap="round" stroke-linejoin="round"/>
<path d="M11.1621 8.91667H11.1696" stroke="#073126" stroke-width="1.25" stroke-linecap="round" stroke-linejoin="round"/>
</svg>
