<svg width="20" height="20" viewBox="0 0 20 20" fill="none" xmlns="http://www.w3.org/2000/svg">
<path d="M7.49935 18.3346H12.4993C16.666 18.3346 18.3327 16.668 18.3327 12.5013V7.5013C18.3327 3.33464 16.666 1.66797 12.4993 1.66797H7.49935C3.33268 1.66797 1.66602 3.33464 1.66602 7.5013V12.5013C1.66602 16.668 3.33268 18.3346 7.49935 18.3346Z" stroke="white" stroke-width="1.25" stroke-linecap="round" stroke-linejoin="round"/>
<path d="M13.5676 11.3422C12.626 12.2839 11.276 12.5755 10.0843 12.2005L7.92598 14.3505C7.77598 14.5089 7.46764 14.6089 7.24264 14.5755L6.24264 14.4422C5.90931 14.4005 5.60931 14.0839 5.55931 13.7589L5.42598 12.7589C5.39264 12.5422 5.50098 12.2339 5.65098 12.0755L7.80098 9.92552C7.43431 8.73385 7.71764 7.38385 8.65931 6.44219C10.0093 5.09219 12.2093 5.09219 13.5676 6.44219C14.9176 7.78385 14.9176 9.98385 13.5676 11.3422Z" stroke="white" stroke-width="1.25" stroke-miterlimit="10" stroke-linecap="round" stroke-linejoin="round"/>
<path d="M8.70833 13.5682L8 12.8516" stroke="white" stroke-width="1.25" stroke-miterlimit="10" stroke-linecap="round" stroke-linejoin="round"/>
<path d="M11.1621 8.91667H11.1696" stroke="white" stroke-width="1.25" stroke-linecap="round" stroke-linejoin="round"/>
</svg>
