<svg width="18" height="18" viewBox="0 0 18 18" fill="none" xmlns="http://www.w3.org/2000/svg">
<path d="M17.7286 11.8854C17.4845 9.87028 15.8958 8.45697 13.8669 8.45697C10.8305 8.45697 7.79072 8.45697 4.75434 8.45697C4.64086 8.45697 4.52394 8.45353 4.41047 8.44665C3.32039 8.38476 2.44008 7.43911 2.44008 6.33185C2.43664 5.23146 3.30664 4.26518 4.38983 4.22392C5.28046 4.18953 6.17796 4.21016 7.07203 4.20672C7.09266 4.20672 7.11329 4.2136 7.15456 4.22392C6.79006 4.58498 6.43931 4.93229 6.11607 5.25553C6.53559 5.67505 6.93104 6.0705 7.29898 6.43845C8.31684 5.41715 9.3519 4.3821 10.3904 3.34017V3.35736C10.3938 4.76379 11.5286 5.90545 12.935 5.90545C14.3449 5.90888 15.49 4.76035 15.49 3.34704C15.4866 1.94405 14.338 0.802396 12.935 0.809273C11.5424 0.816151 10.4179 1.92342 10.3904 3.30578C9.38284 2.28104 8.35467 1.24255 7.33681 0.210938C6.91729 0.633899 6.52527 1.02935 6.08856 1.46951C6.42555 1.80306 6.7763 2.14693 7.13737 2.50456H6.94136C6.092 2.508 5.24607 2.4908 4.39671 2.51831C1.96554 2.59397 0.218675 5.00106 0.878908 7.33939C1.35345 9.0278 2.84241 10.1523 4.59959 10.1523C7.64973 10.1523 10.6964 10.1523 13.7466 10.1557C13.9288 10.1557 14.1145 10.1626 14.2933 10.1935C15.4075 10.3964 16.1365 11.3627 16.0402 12.494C15.9473 13.56 15.0326 14.3991 13.9219 14.4059C11.5148 14.4128 9.10775 14.4059 6.70065 14.4128C6.58373 14.4128 6.53215 14.3716 6.48745 14.265C6.01291 13.1439 4.85062 12.5318 3.64019 12.7588C2.49854 12.9686 1.63542 13.9899 1.5976 15.1728C1.55633 16.366 2.35412 17.4251 3.51984 17.7243C3.64707 17.7552 3.7743 17.7793 3.90154 17.8103H4.38296C4.51019 17.7828 4.64086 17.7621 4.76465 17.7277C5.55212 17.5145 6.13326 17.0434 6.46338 16.2972C6.53559 16.1391 6.61812 16.1081 6.76942 16.1081C9.10775 16.1115 11.4426 16.1081 13.781 16.1115C14.6166 16.1115 15.3937 15.9155 16.0815 15.4341C17.034 14.767 17.5842 13.8523 17.7252 12.6935C17.7286 12.6556 17.7458 12.6178 17.7561 12.58V11.961C17.7492 11.9369 17.732 11.9129 17.7286 11.8854ZM12.9316 2.508C13.4027 2.50456 13.7878 2.88626 13.7913 3.35392C13.7913 3.82502 13.4096 4.20672 12.9419 4.20672C12.4708 4.20672 12.0891 3.82159 12.0926 3.35392C12.0926 2.88969 12.4708 2.51144 12.9316 2.508ZM4.14568 16.1012C3.67458 16.1012 3.29632 15.723 3.29632 15.2484C3.29632 14.7876 3.67114 14.4094 4.13537 14.4025C4.60303 14.3956 4.99505 14.7808 4.99505 15.245C4.99505 15.7195 4.61679 16.1012 4.14568 16.1012Z" fill="#FEFEFF"/>
</svg>
