<svg width="20" height="20" viewBox="0 0 20 20" fill="none" xmlns="http://www.w3.org/2000/svg">
<path d="M18.3077 15.2724C18.3077 15.5724 18.241 15.8807 18.0993 16.1807C17.9577 16.4807 17.7744 16.7641 17.5327 17.0307C17.1244 17.4807 16.6743 17.8057 16.166 18.0141C15.666 18.2224 15.1244 18.3307 14.541 18.3307C13.691 18.3307 12.7827 18.1307 11.8243 17.7224C10.866 17.3141 9.90768 16.7641 8.95768 16.0724C7.99935 15.3724 7.09102 14.5974 6.22435 13.7391C5.36602 12.8724 4.59102 11.9641 3.89935 11.0141C3.21602 10.0641 2.66602 9.11406 2.26602 8.1724C1.86602 7.2224 1.66602 6.31406 1.66602 5.4474C1.66602 4.88073 1.76602 4.33906 1.96602 3.83906C2.16602 3.33073 2.48268 2.86406 2.92435 2.4474C3.45768 1.9224 4.04102 1.66406 4.65768 1.66406C4.89102 1.66406 5.12435 1.71406 5.33268 1.81406C5.54935 1.91406 5.74102 2.06406 5.89102 2.28073L7.82435 5.00573C7.97435 5.21406 8.08268 5.40573 8.15768 5.58906C8.23268 5.76406 8.27435 5.93906 8.27435 6.0974C8.27435 6.2974 8.21602 6.4974 8.09935 6.68906C7.99102 6.88073 7.83268 7.08073 7.63268 7.28073L6.99935 7.93906C6.90768 8.03073 6.86602 8.13906 6.86602 8.2724C6.86602 8.33906 6.87435 8.3974 6.89102 8.46406C6.91602 8.53073 6.94102 8.58073 6.95768 8.63073C7.10768 8.90573 7.36602 9.26406 7.73268 9.6974C8.10768 10.1307 8.50768 10.5724 8.94102 11.0141C9.39102 11.4557 9.82435 11.8641 10.266 12.2391C10.6993 12.6057 11.0577 12.8557 11.341 13.0057C11.3827 13.0224 11.4327 13.0474 11.491 13.0724C11.5577 13.0974 11.6243 13.1057 11.6993 13.1057C11.841 13.1057 11.9493 13.0557 12.041 12.9641L12.6743 12.3391C12.8827 12.1307 13.0827 11.9724 13.2743 11.8724C13.466 11.7557 13.6577 11.6974 13.866 11.6974C14.0243 11.6974 14.191 11.7307 14.3743 11.8057C14.5577 11.8807 14.7494 11.9891 14.9577 12.1307L17.716 14.0891C17.9327 14.2391 18.0827 14.4141 18.1743 14.6224C18.2577 14.8307 18.3077 15.0391 18.3077 15.2724Z" stroke="white" stroke-width="1.25" stroke-miterlimit="10"/>
</svg>
